<?xml version="1.0" encoding="UTF-8"?>
<svg width="30px" height="30px" viewBox="0 0 30 30" version="1.1" xmlns="http://www.w3.org/2000/svg" xmlns:xlink="http://www.w3.org/1999/xlink">
    <!-- Generator: Sketch 53.2 (72643) - https://sketchapp.com -->
    <title>003-close-1</title>
    <desc>Created with Sketch.</desc>
    <g id="Wireframe" stroke="none" stroke-width="1" fill="none" fill-rule="evenodd">
        <g id="Notification" transform="translate(-19.000000, -19.000000)" fill="#000000" fill-rule="nonzero">
            <g id="003-close-1" transform="translate(19.000000, 19.000000)">
                <path d="M29.6450977,0.354960938 C29.1718359,-0.118300781 28.4045508,-0.118300781 27.9312891,0.354960938 L0.354960938,27.9312305 C-0.118300781,28.4044922 -0.118300781,29.1717773 0.354960938,29.6450391 C0.5915625,29.8817578 0.901757813,30 1.21189453,30 C1.52203125,30 1.83216797,29.8816992 2.06882813,29.6449805 L29.6450977,2.06871094 C30.1183008,1.59550781 30.1183008,0.828222656 29.6450977,0.354960938 Z" id="Path"></path>
                <path d="M29.6450391,27.9312891 L2.06871094,0.355019531 C1.59550781,-0.118242187 0.828164062,-0.118242187 0.354960937,0.355019531 C-0.118300781,0.828222656 -0.118300781,1.59550781 0.354960937,2.06876953 L27.9312891,29.6450977 C28.1678906,29.8817578 28.4780859,30.0000586 28.7882227,30.0000586 C29.0983594,30.0000586 29.4085547,29.8817578 29.6450977,29.6451562 C30.1182422,29.1718359 30.1182422,28.4045508 29.6450391,27.9312891 Z" id="Path"></path>
            </g>
        </g>
    </g>
</svg>