<?xml version="1.0" encoding="UTF-8"?>
<svg width="14px" height="14px" viewBox="0 0 14 14" version="1.1" xmlns="http://www.w3.org/2000/svg" xmlns:xlink="http://www.w3.org/1999/xlink">
    <!-- Generator: Sketch 53.2 (72643) - https://sketchapp.com -->
    <title>003-close-1</title>
    <desc>Created with Sketch.</desc>
    <g id="Wireframe" stroke="none" stroke-width="1" fill="none" fill-rule="evenodd">
        <g id="Notification" transform="translate(-227.000000, -585.000000)" fill="#000000" fill-rule="nonzero">
            <g id="003-close-1" transform="translate(227.000000, 585.000000)">
                <path d="M13.8343788,0.165641682 C13.6135232,-0.0552138941 13.2554567,-0.0552138941 13.0346011,0.165641682 L0.165641682,13.0345737 C-0.0552138941,13.2554293 -0.0552138941,13.6134959 0.165641682,13.8343515 C0.276055799,13.9448203 0.420813682,14 0.565544221,14 C0.710274761,14 0.8550053,13.9447929 0.96544676,13.8343241 L13.8343788,0.965392073 C14.0552071,0.74456384 14.0552071,0.386497259 13.8343788,0.165641682 Z" id="Path"></path>
                <path d="M13.8343751,13.0345737 L0.965393723,0.165641682 C0.744565113,-0.0552138941 0.386470576,-0.0552138941 0.165641966,0.165641682 C-0.0552139885,0.386469915 -0.0552139885,0.744536496 0.165641966,0.965392073 L13.0346234,13.8343515 C13.1450377,13.9447929 13.2897958,14 13.4345266,14 C13.5792574,14 13.7240155,13.9447929 13.8344025,13.8343788 C14.0552037,13.6134959 14.0552037,13.2554293 13.8343751,13.0345737 Z" id="Path"></path>
            </g>
        </g>
    </g>
</svg>