<?xml version="1.0" encoding="UTF-8"?>
<svg width="208px" height="148px" viewBox="0 0 208 148" version="1.1" xmlns="http://www.w3.org/2000/svg" xmlns:xlink="http://www.w3.org/1999/xlink">
    <!-- Generator: Sketch 53.2 (72643) - https://sketchapp.com -->
    <title>002-mail-1</title>
    <desc>Created with Sketch.</desc>
    <g id="Wireframe" stroke="none" stroke-width="1" fill="none" fill-rule="evenodd">
        <g id="Notification" transform="translate(-84.000000, -141.000000)" fill="#000000" fill-rule="nonzero">
            <g id="002-mail-1" transform="translate(84.000000, 141.000000)">
                <path d="M191.232297,148 L16.7677028,148 C7.52534503,148 0,140.474804 0,131.217671 L0,16.7823287 C0,7.52519617 7.52534503,0 16.7677028,0 L191.232297,0 C200.474655,0 208,7.52519617 208,16.7823287 L208,131.217671 C208,140.474804 200.474655,148 191.232297,148 Z M16.7677028,6.71293146 C11.2209467,6.71293146 6.70708113,11.2307343 6.70708113,16.7823287 L6.70708113,131.217671 C6.70708113,136.769266 11.2209467,141.287069 16.7677028,141.287069 L191.232297,141.287069 C196.779053,141.287069 201.292919,136.769266 201.292919,131.217671 L201.292919,16.7823287 C201.292919,11.2307343 196.779053,6.71293146 191.232297,6.71293146 L16.7677028,6.71293146 Z" id="Shape"></path>
                <path d="M104.010044,91 C99.557198,91 95.104352,89.5181141 91.7161714,86.5610477 L6.14787181,11.8833867 C4.75510193,10.6630101 4.60778973,8.55081981 5.82646338,7.15610368 C7.04513702,5.74797682 9.16107588,5.61386951 10.5538458,6.82754075 L96.1154493,81.5052018 C100.400895,85.2400906 107.632585,85.2333853 111.904639,81.5052018 L197.446154,6.83424611 C198.832228,5.60716414 200.941471,5.74797682 202.173537,7.16280905 C203.39221,8.55752517 203.244898,10.6697155 201.852128,11.8900921 L116.303917,86.5543423 C112.915736,89.5181141 108.46289,91 104.010044,91 Z" id="Path"></path>
            </g>
        </g>
    </g>
</svg>