<?xml version="1.0" encoding="UTF-8"?>
<svg width="128px" height="91px" viewBox="0 0 128 91" version="1.1" xmlns="http://www.w3.org/2000/svg" xmlns:xlink="http://www.w3.org/1999/xlink">
    <!-- Generator: Sketch 53.2 (72643) - https://sketchapp.com -->
    <title>002-mail-1</title>
    <desc>Created with Sketch.</desc>
    <g id="Wireframe" stroke="none" stroke-width="1" fill="none" fill-rule="evenodd">
        <g id="Home-Notification-Active" transform="translate(-124.000000, -358.000000)" fill="#000000" fill-rule="nonzero">
            <g id="002-mail-1" transform="translate(124.000000, 358.000000)">
                <path d="M117.681414,91 L10.3185864,91 C4.63098156,91 0,86.3730213 0,80.6811358 L0,10.3188642 C0,4.62697873 4.63098156,0 10.3185864,0 L117.681414,0 C123.369018,0 128,4.62697873 128,10.3188642 L128,80.6811358 C128,86.3730213 123.369018,91 117.681414,91 Z M10.3185864,4.1275457 C6.90519799,4.1275457 4.12743454,6.90538395 4.12743454,10.3188642 L4.12743454,80.6811358 C4.12743454,84.094616 6.90519799,86.8724543 10.3185864,86.8724543 L117.681414,86.8724543 C121.094802,86.8724543 123.872565,84.094616 123.872565,80.6811358 L123.872565,10.3188642 C123.872565,6.90538395 121.094802,4.1275457 117.681414,4.1275457 L10.3185864,4.1275457 Z" id="Shape"></path>
                <path d="M64.0061887,56 C61.2625159,56 58.5188431,55.0934345 56.4311763,53.2844057 L3.70727455,7.59924834 C2.84910321,6.852665 2.75833509,5.56050153 3.50923501,4.70726343 C4.26013493,3.84582112 5.56389524,3.76377899 6.42206658,4.50626022 L59.1418425,50.1914175 C61.7823697,52.4762907 66.2382594,52.4721886 68.8705349,50.1914175 L121.577933,4.51036233 C122.431979,3.75967689 123.731613,3.84582112 124.490765,4.71136554 C125.241665,5.56460364 125.150897,6.85676711 124.292725,7.60335044 L71.5812012,53.2803036 C69.4935343,55.0934345 66.7498615,56 64.0061887,56 Z" id="Path"></path>
            </g>
        </g>
    </g>
</svg>