<?xml version="1.0" encoding="UTF-8"?>
<svg width="31px" height="31px" viewBox="0 0 31 31" version="1.1" xmlns="http://www.w3.org/2000/svg" xmlns:xlink="http://www.w3.org/1999/xlink">
    <!-- Generator: Sketch 53.2 (72643) - https://sketchapp.com -->
    <title>smile</title>
    <desc>Created with Sketch.</desc>
    <g id="Wireframe" stroke="none" stroke-width="1" fill="none" fill-rule="evenodd">
        <g id="Home-Notification-Inactive" transform="translate(-284.000000, -200.000000)" fill="#000000" fill-rule="nonzero">
            <g id="smile" transform="translate(284.000000, 200.000000)">
                <path d="M21.7671338,19.1700387 C21.478729,18.9240411 21.0356216,18.9480409 20.7787174,19.2220381 C19.3184931,20.7760224 17.212858,21.6666801 15.0001212,21.6666801 C12.7880843,21.6666801 10.6817493,20.7760224 9.22152495,19.2220381 C8.96322065,18.9480409 8.52151329,18.9240411 8.23310849,19.1700387 C7.94470369,19.4153695 7.92090329,19.8366986 8.17850758,20.1113625 C9.90403631,21.947344 12.3904777,23 15.0001212,23 C17.6104646,23 20.096906,21.9466773 21.8217347,20.1113625 C22.079339,19.8366986 22.0548386,19.4153695 21.7671338,19.1700387 Z" id="Path"></path>
                <path d="M15.5,0 C6.95343478,0 0,6.95343478 0,15.5 C0,24.0465652 6.95343478,31 15.5,31 C24.0465652,31 31,24.0465652 31,15.5 C31,6.95343478 24.0465652,0 15.5,0 Z M15.5,29.6521739 C7.69608696,29.6521739 1.34782609,23.303913 1.34782609,15.5 C1.34782609,7.69608696 7.69608696,1.34782609 15.5,1.34782609 C23.303913,1.34782609 29.6521739,7.69608696 29.6521739,15.5 C29.6521739,23.303913 23.303913,29.6521739 15.5,29.6521739 Z" id="Shape"></path>
                <path d="M20.5,10 C18.5701,10 17,11.4953333 17,13.3333333 C17,13.7013333 17.3136,14 17.7,14 C18.0864,14 18.4,13.7013333 18.4,13.3333333 C18.4,12.2306667 19.3422,11.3333333 20.5,11.3333333 C21.6578,11.3333333 22.6,12.2306667 22.6,13.3333333 C22.6,13.7013333 22.9136,14 23.3,14 C23.6864,14 24,13.7013333 24,13.3333333 C24,11.4953333 22.4299,10 20.5,10 Z" id="Path"></path>
                <path d="M12.6,13.3333333 C12.6,13.7013333 12.9136,14 13.3,14 C13.6864,14 14,13.7013333 14,13.3333333 C14,11.4953333 12.4299,10 10.5,10 C8.5701,10 7,11.4953333 7,13.3333333 C7,13.7013333 7.3136,14 7.7,14 C8.0864,14 8.4,13.7013333 8.4,13.3333333 C8.4,12.2306667 9.3422,11.3333333 10.5,11.3333333 C11.6578,11.3333333 12.6,12.2306667 12.6,13.3333333 Z" id="Path"></path>
            </g>
        </g>
    </g>
</svg>